# xmcd
#
# Track frame offsets: 
#        150
#        3615
#        41455
#        71510
#        94198
#        123228
#        151998
#        183533
#        213718
#        242055
#        259573
#        293010
#        319865
#
# Disc length: 4696 seconds
#
# Revision: 2
# Processed by: cddbd v1.5.2PL0 Copyright (c) Steve Scherf et al.
# Submitted via: ExactAudioCopy v0.95b4
#
DISCID=b512560d
DTITLE=Prodigy, The - Music For The Jilted Generation
DYEAR=1994
DGENRE=Electronic
TTITLE0=Intro
TTITLE1=Break and Enter
TTITLE2=Their Law (Feat. Pop Will Eat Itself)
TTITLE3=Full Throttle
TTITLE4=Voodoo People
TTITLE5=Speedway (Theme From Fastlane)
TTITLE6=The Heat (The Energy)
TTITLE7=Poison
TTITLE8=No Good (Start The Dance)
TTITLE9=One Love (Edit)
TTITLE10=3 Kilos
TTITLE11=Skylined
TTITLE12=Claustrophobic Sting
EXTD=
EXTT0=
EXTT1=
EXTT2=
EXTT3=
EXTT4=
EXTT5=
EXTT6=
EXTT7=
EXTT8=
EXTT9=
EXTT10=
EXTT11=
EXTT12=
PLAYORDER=
